HIERARCHY
ROOT Hips
{
  OFFSET -51.6248 92.5761 197.566
  CHANNELS 6 Xposition Yposition Zposition Zrotation Xrotation Yrotation
  JOINT Spine
  {
    OFFSET 0 8 0
    CHANNELS 6 Xposition Yposition Zposition Zrotation Xrotation Yrotation
    JOINT Spine1
    {
      OFFSET 0 8 0
      CHANNELS 6 Xposition Yposition Zposition Zrotation Xrotation Yrotation
      JOINT Spine2
      {
        OFFSET 0 8 0
        CHANNELS 6 Xposition Yposition Zposition Zrotation Xrotation Yrotation
        JOINT Spine3
        {
          OFFSET 0 8 0
          CHANNELS 6 Xposition Yposition Zposition Zrotation Xrotation Yrotation
          JOINT Neck
          {
            OFFSET 0 17 0
            CHANNELS 6 Xposition Yposition Zposition Zrotation Xrotation Yrotation
            JOINT Head
            {
              OFFSET 0 10.8 0
              CHANNELS 6 Xposition Yposition Zposition Zrotation Xrotation Yrotation
              End Site
              {
                OFFSET 0 20.25 0
              }
            }
          }
          JOINT LeftShoulder
          {
            OFFSET 5 17 0
            CHANNELS 6 Xposition Yposition Zposition Zrotation Xrotation Yrotation
            JOINT LeftShoulder2
            {
              OFFSET 6.45 0 0
              CHANNELS 6 Xposition Yposition Zposition Zrotation Xrotation Yrotation
              JOINT LeftArm
              {
                OFFSET 6.45 0 0
                CHANNELS 6 Xposition Yposition Zposition Zrotation Xrotation Yrotation
                JOINT LeftForeArm
                {
                  OFFSET 0 -32.4 -2
                  CHANNELS 6 Xposition Yposition Zposition Zrotation Xrotation Yrotation
                  JOINT LeftHand
                  {
                    OFFSET 0 -25.65 2
                    CHANNELS 6 Xposition Yposition Zposition Zrotation Xrotation Yrotation
                    JOINT LeftHandThumb1
                    {
                      OFFSET -0.5 -1.5 2.65
                      CHANNELS 6 Xposition Yposition Zposition Zrotation Xrotation Yrotation
                      JOINT LeftHandThumb2
                      {
                        OFFSET 0 -3.8 3.7
                        CHANNELS 6 Xposition Yposition Zposition Zrotation Xrotation Yrotation
                        JOINT LeftHandThumb3
                        {
                          OFFSET 0 -3 2.7
                          CHANNELS 6 Xposition Yposition Zposition Zrotation Xrotation Yrotation
                          End Site
                          {
                            OFFSET 0 -2.3 1.8
                          }
                        }
                      }
                    }
                    JOINT LeftHandIndex
                    {
                      OFFSET 0 -1.9 1.6
                      CHANNELS 6 Xposition Yposition Zposition Zrotation Xrotation Yrotation
                      JOINT LeftHandIndex1
                      {
                        OFFSET 0 -8.3 1.9
                        CHANNELS 6 Xposition Yposition Zposition Zrotation Xrotation Yrotation
                        JOINT LeftHandIndex2
                        {
                          OFFSET 0 -4.5 0
                          CHANNELS 6 Xposition Yposition Zposition Zrotation Xrotation Yrotation
                          JOINT LeftHandIndex3
                          {
                            OFFSET 0 -3.4 0
                            CHANNELS 6 Xposition Yposition Zposition Zrotation Xrotation Yrotation
                            End Site
                            {
                              OFFSET 0 -2.6 0
                            }
                          }
                        }
                      }
                    }
                    JOINT LeftHandMiddle
                    {
                      OFFSET -0.25 -2.2 0.4
                      CHANNELS 6 Xposition Yposition Zposition Zrotation Xrotation Yrotation
                      JOINT LeftHandMiddle1
                      {
                        OFFSET 0 -8.3 1
                        CHANNELS 6 Xposition Yposition Zposition Zrotation Xrotation Yrotation
                        JOINT LeftHandMiddle2
                        {
                          OFFSET 0 -4.65 0
                          CHANNELS 6 Xposition Yposition Zposition Zrotation Xrotation Yrotation
                          JOINT LeftHandMiddle3
                          {
                            OFFSET 0 -3.3 0
                            CHANNELS 6 Xposition Yposition Zposition Zrotation Xrotation Yrotation
                            End Site
                            {
                              OFFSET 0 -2.7 0
                            }
                          }
                        }
                      }
                    }
                    JOINT LeftHandRing
                    {
                      OFFSET -0.5 -2.15 -0.8
                      CHANNELS 6 Xposition Yposition Zposition Zrotation Xrotation Yrotation
                      JOINT LeftHandRing1
                      {
                        OFFSET 0 -7.75 -0.2
                        CHANNELS 6 Xposition Yposition Zposition Zrotation Xrotation Yrotation
                        JOINT LeftHandRing2
                        {
                          OFFSET 0 -3.8 0
                          CHANNELS 6 Xposition Yposition Zposition Zrotation Xrotation Yrotation
                          JOINT LeftHandRing3
                          {
                            OFFSET 0 -3.4 0
                            CHANNELS 6 Xposition Yposition Zposition Zrotation Xrotation Yrotation
                            End Site
                            {
                              OFFSET 0 -2.6 0
                            }
                          }
                        }
                      }
                    }
                    JOINT LeftHandPinky
                    {
                      OFFSET -0.75 -1.75 -1.85
                      CHANNELS 6 Xposition Yposition Zposition Zrotation Xrotation Yrotation
                      JOINT LeftHandPinky1
                      {
                        OFFSET 0 -7.15 -1
                        CHANNELS 6 Xposition Yposition Zposition Zrotation Xrotation Yrotation
                        JOINT LeftHandPinky2
                        {
                          OFFSET 0 -3 0
                          CHANNELS 6 Xposition Yposition Zposition Zrotation Xrotation Yrotation
                          JOINT LeftHandPinky3
                          {
                            OFFSET 0 -2.35 0
                            CHANNELS 6 Xposition Yposition Zposition Zrotation Xrotation Yrotation
                            End Site
                            {
                              OFFSET 0 -2.1 0
                            }
                          }
                        }
                      }
                    }
                  }
                }
              }
            }
          }
          JOINT RightShoulder
          {
            OFFSET -5 17 0
            CHANNELS 6 Xposition Yposition Zposition Zrotation Xrotation Yrotation
            JOINT RightShoulder2
            {
              OFFSET -6.45 0 0
              CHANNELS 6 Xposition Yposition Zposition Zrotation Xrotation Yrotation
              JOINT RightArm
              {
                OFFSET -6.45 0 0
                CHANNELS 6 Xposition Yposition Zposition Zrotation Xrotation Yrotation
                JOINT RightForeArm
                {
                  OFFSET 0 -32.4 -2
                  CHANNELS 6 Xposition Yposition Zposition Zrotation Xrotation Yrotation
                  JOINT RightHand
                  {
                    OFFSET 0 -25.65 2
                    CHANNELS 6 Xposition Yposition Zposition Zrotation Xrotation Yrotation
                    JOINT RightHandThumb1
                    {
                      OFFSET 0.5 -1.5 2.65
                      CHANNELS 6 Xposition Yposition Zposition Zrotation Xrotation Yrotation
                      JOINT RightHandThumb2
                      {
                        OFFSET 0 -3.8 3.7
                        CHANNELS 6 Xposition Yposition Zposition Zrotation Xrotation Yrotation
                        JOINT RightHandThumb3
                        {
                          OFFSET 0 -3 2.7
                          CHANNELS 6 Xposition Yposition Zposition Zrotation Xrotation Yrotation
                          End Site
                          {
                            OFFSET 0 -2.3 1.8
                          }
                        }
                      }
                    }
                    JOINT RightHandIndex
                    {
                      OFFSET 0 -1.9 1.6
                      CHANNELS 6 Xposition Yposition Zposition Zrotation Xrotation Yrotation
                      JOINT RightHandIndex1
                      {
                        OFFSET 0 -8.3 1.9
                        CHANNELS 6 Xposition Yposition Zposition Zrotation Xrotation Yrotation
                        JOINT RightHandIndex2
                        {
                          OFFSET 0 -4.5 0
                          CHANNELS 6 Xposition Yposition Zposition Zrotation Xrotation Yrotation
                          JOINT RightHandIndex3
                          {
                            OFFSET 0 -3.4 0
                            CHANNELS 6 Xposition Yposition Zposition Zrotation Xrotation Yrotation
                            End Site
                            {
                              OFFSET 0 -2.6 0
                            }
                          }
                        }
                      }
                    }
                    JOINT RightHandMiddle
                    {
                      OFFSET 0.25 -2.2 0.4
                      CHANNELS 6 Xposition Yposition Zposition Zrotation Xrotation Yrotation
                      JOINT RightHandMiddle1
                      {
                        OFFSET 0 -8.3 1
                        CHANNELS 6 Xposition Yposition Zposition Zrotation Xrotation Yrotation
                        JOINT RightHandMiddle2
                        {
                          OFFSET 0 -4.65 0
                          CHANNELS 6 Xposition Yposition Zposition Zrotation Xrotation Yrotation
                          JOINT RightHandMiddle3
                          {
                            OFFSET 0 -3.3 0
                            CHANNELS 6 Xposition Yposition Zposition Zrotation Xrotation Yrotation
                            End Site
                            {
                              OFFSET 0 -2.7 0
                            }
                          }
                        }
                      }
                    }
                    JOINT RightHandRing
                    {
                      OFFSET 0.5 -2.15 -0.8
                      CHANNELS 6 Xposition Yposition Zposition Zrotation Xrotation Yrotation
                      JOINT RightHandRing1
                      {
                        OFFSET 0 -7.75 -0.2
                        CHANNELS 6 Xposition Yposition Zposition Zrotation Xrotation Yrotation
                        JOINT RightHandRing2
                        {
                          OFFSET 0 -3.8 0
                          CHANNELS 6 Xposition Yposition Zposition Zrotation Xrotation Yrotation
                          JOINT RightHandRing3
                          {
                            OFFSET 0 -3.4 0
                            CHANNELS 6 Xposition Yposition Zposition Zrotation Xrotation Yrotation
                            End Site
                            {
                              OFFSET 0 -2.6 0
                            }
                          }
                        }
                      }
                    }
                    JOINT RightHandPinky
                    {
                      OFFSET 0.75 -1.75 -1.85
                      CHANNELS 6 Xposition Yposition Zposition Zrotation Xrotation Yrotation
                      JOINT RightHandPinky1
                      {
                        OFFSET 0 -7.15 -1
                        CHANNELS 6 Xposition Yposition Zposition Zrotation Xrotation Yrotation
                        JOINT RightHandPinky2
                        {
                          OFFSET 0 -3 0
                          CHANNELS 6 Xposition Yposition Zposition Zrotation Xrotation Yrotation
                          JOINT RightHandPinky3
                          {
                            OFFSET 0 -2.35 0
                            CHANNELS 6 Xposition Yposition Zposition Zrotation Xrotation Yrotation
                            End Site
                            {
                              OFFSET 0 -2.1 0
                            }
                          }
                        }
                      }
                    }
                  }
                }
              }
            }
          }
        }
      }
    }
  }
  JOINT LeftUpLeg
  {
    OFFSET 8 0 0
    CHANNELS 6 Xposition Yposition Zposition Zrotation Xrotation Yrotation
    JOINT LeftLeg
    {
      OFFSET 0 -45 -1
      CHANNELS 6 Xposition Yposition Zposition Zrotation Xrotation Yrotation
      JOINT LeftFoot
      {
        OFFSET 0 -41 -2
        CHANNELS 6 Xposition Yposition Zposition Zrotation Xrotation Yrotation
        JOINT LeftToeBase
        {
          OFFSET 0 -7.5 12.5
          CHANNELS 6 Xposition Yposition Zposition Zrotation Xrotation Yrotation
          JOINT LeftFootToe
          {
            OFFSET 0 0 4
            CHANNELS 6 Xposition Yposition Zposition Zrotation Xrotation Yrotation
            End Site
            {
              OFFSET 0 0 0
            }
          }
        }
      }
    }
  }
  JOINT RightUpLeg
  {
    OFFSET -8 0 0
    CHANNELS 6 Xposition Yposition Zposition Zrotation Xrotation Yrotation
    JOINT RightLeg
    {
      OFFSET 0 -45 -1
      CHANNELS 6 Xposition Yposition Zposition Zrotation Xrotation Yrotation
      JOINT RightFoot
      {
        OFFSET 0 -41 -2
        CHANNELS 6 Xposition Yposition Zposition Zrotation Xrotation Yrotation
        JOINT RightToeBase
        {
          OFFSET 0 -7.5 12.5
          CHANNELS 6 Xposition Yposition Zposition Zrotation Xrotation Yrotation
          JOINT RightFootToe
          {
            OFFSET 0 0 4
            CHANNELS 6 Xposition Yposition Zposition Zrotation Xrotation Yrotation
            End Site
            {
              OFFSET 0 0 0
            }
          }
        }
      }
    }
  }
}
MOTION
Frames:	3
Frame Time:	0.0111111
-59.4952 91.4199 192.621 -6.50094 5.04622 36.1272 0 8 -1.42109e-14 -1.21979 5.79036 -109.755 -2.84217e-14 8 0 -7.29637 -0.634286 96.9598 2.84217e-14 8 0 -0.72875 1.84291 26.694 0 8 -1.42109e-14 -0.46035 1.78349 7.49811 0 17 0 0.268694 5.12316 -0.414907 2.84217e-14 10.8 1.42109e-14 0.694024 11.9695 -1.01587 5 17 -1.42109e-14 -4.85591 -1.36344 4.28943 6.45 0 1.42109e-14 2.66971 6.89311 -1.12318 6.45 0 1.42109e-14 -17.0165 -67.5866 -34.2796 0 -32.4 -2 2.78066 -46.3733 14.2061 -2.84217e-14 -25.65 2 43.3499 -9.39421 -15.5975 -0.5 -1.5 2.65 -3.82423 -19.1425 -3.96828 0 -3.8 3.7 0.00308099 30.5754 -0.0180387 -2.84217e-14 -3 2.7 -0.00912943 26.7672 0.016527 0 -1.9 1.6 3.97569e-16 1.39149e-15 -0 0 -8.3 1.9 -36.9233 5.85915 2.3937 1.42109e-14 -4.5 0 -19.0048 -0.0131642 0.0467347 0 -3.4 -2.84217e-14 -15.2346 -0.0163257 0.0269288 -0.25 -2.2 0.4 3.97569e-16 3.97569e-16 -0 0 -8.3 1 -39.7792 3.23545 2.20528 2.84217e-14 -4.65 0 -13.2958 0.0411556 0.0544187 1.42109e-14 -3.3 0 -11.2824 0.0689768 0.0135872 -0.5 -2.15 -0.8 3.97569e-16 1.39149e-15 -0 -2.84217e-14 -7.75 -0.2 -29.2941 4.54259 2.1818 0 -3.8 0 -33.8189 -0.00330814 0.074626 -1.42109e-14 -3.4 -2.84217e-14 -24.3743 -0.00497274 0.00662268 -0.75 -1.75 -1.85 3.97569e-16 1.39149e-15 -0 0 -7.15 -1 -64.1652 -0.131272 4.89405 0 -3 0 -0 0 1.59028e-15 0 -2.35 0 1.76556e-31 6.36111e-15 -1.59028e-15 -5 17 -1.42109e-14 -2.1747 -1.92022 -5.06906 -6.45 0 1.42109e-14 3.86577 8.30218 -1.80531 -6.45 0 1.42109e-14 12.1002 -74.1036 37.1142 0 -32.4 -2 12.349 -45.0731 -8.51342 -2.84217e-14 -25.65 2 -28.6671 2.58245 5.69176 0.5 -1.5 2.65 6.78762 -20.2021 3.32841 0 -3.8 3.7 0.295353 36.4748 -0.0727194 0 -3 2.7 0.0371339 18.3352 -0.0727347 0 -1.9 1.6 3.18055e-15 -7.95139e-16 -0 0 -8.3 1.9 21.1611 8.33837 -1.74431 2.84217e-14 -4.5 0 13.3849 0.0161261 0.0134138 2.84217e-14 -3.4 0 11.3474 0.0152265 0.0101816 0.25 -2.2 0.4 3.18055e-15 -7.95139e-16 -0 0 -8.3 1 20.2694 8.93255 -1.90817 0 -4.65 -2.84217e-14 23.9039 -0.01882 0.00616791 0 -3.3 0 18.3766 -0.0128543 0.0125967 0.5 -2.15 -0.8 3.18055e-15 -7.95139e-16 -0 0 -7.75 -0.2 16.5974 5.26942 -1.0946 2.84217e-14 -3.8 0 33.6857 0.0128614 0.00312358 0 -3.4 0 24.2949 0.00240878 0.0124905 0.75 -1.75 -1.85 3.18055e-15 -7.95139e-16 -0 2.84217e-14 -7.15 -1 13.3307 3.50445 -0.711317 0 -3 0 25.7703 -0.00112272 0.0044126 0 -2.35 0 19.5321 0.000798456 -0.00850392 8 0 1.42109e-14 18.9215 -18.5377 24.424 -2.84217e-14 -45 -1 0.0209578 16.3969 -0.22778 2.84217e-14 -41 -2 -10.7797 -0.26924 -17.2047 0 -7.5 12.5 1.55301e-18 1.81851e-09 -9.54166e-15 0 0 4 3.55877 1.26418 0.00362286 -8 -1.42109e-14 -1.42109e-14 -2.25025 -24.3162 -0.617555 0 -45 -1 -0.106522 13.5557 1.33546 0 -41 -2 4.5159 2.7769 6.31293 0 -7.5 12.5 -1.51661e-21 0 -0 0 0 4 -6.05429 -3.06894 0.000449784 
-59.1459 91.5943 192.885 -6.09801 4.85226 36.002 0 8 0 -1.31098 5.37653 -109.775 0 8 0 -6.75853 -0.403944 96.951 0 8 0 -0.69043 1.74528 26.6781 0 8 1.42109e-14 -0.448086 1.74841 7.48171 0 17 1.42109e-14 0.327576 5.4159 -0.379037 0 10.8 1.42109e-14 0.831993 12.6554 -0.943752 5 17 1.42109e-14 -4.86473 -1.36767 4.32205 6.45 0 0 2.83091 7.17471 -1.09469 6.45 0 -1.42109e-14 -16.0909 -67.7757 -33.632 1.42109e-14 -32.4 -2 2.86489 -45.9764 13.6324 0 -25.65 2 43.0711 -9.70779 -16.308 -0.5 -1.5 2.65 -3.72051 -19.0104 -3.98439 2.84217e-14 -3.8 3.7 0.00324527 30.5881 -0.0190091 -2.84217e-14 -3 2.7 -0.00251934 26.7306 0.0139218 0 -1.9 1.6 0 5.96354e-16 -0 2.84217e-14 -8.3 1.9 -36.9347 5.8406 2.3875 0 -4.5 2.84217e-14 -18.8049 -0.0207504 0.046797 1.42109e-14 -3.4 0 -15.1016 -0.0182382 0.0269672 -0.25 -2.2 0.4 -0 -3.97569e-16 -0 2.84217e-14 -8.3 1 -39.7308 3.22762 2.20135 0 -4.65 2.84217e-14 -13.2085 0.041472 0.0545347 0 -3.3 0 -11.2185 0.0693886 0.0126886 -0.5 -2.15 -0.8 0 5.96354e-16 -0 0 -7.75 -0.2 -29.4307 4.42005 2.1617 0 -3.8 0 -33.7111 -0.0117222 0.0745232 -1.42109e-14 -3.4 -2.84217e-14 -24.31 -0.00556653 0.00533784 -0.75 -1.75 -1.85 0 5.96354e-16 -0 0 -7.15 -1 -64.099 -0.269446 4.77633 1.42109e-14 -3 0 3.18055e-15 3.18055e-15 -3.18055e-15 -7.10543e-15 -2.35 0 3.18055e-15 -3.18055e-15 1.59028e-15 -5 17 2.84217e-14 -2.21508 -2.00703 -4.87759 -6.45 -2.84217e-14 -1.42109e-14 4.05129 8.56607 -1.83135 -6.45 -5.68434e-14 -1.42109e-14 12.057 -74.1374 37.1543 -2.84217e-14 -32.4 -2 12.1086 -44.6433 -8.09083 0 -25.65 2 -28.4529 2.59187 6.34059 0.5 -1.5 2.65 6.51695 -20.5185 3.27525 0 -3.8 3.7 0.283341 36.588 -0.0709278 0 -3 2.7 0.0406725 18.4537 -0.0666274 0 -1.9 1.6 6.36111e-15 -1.98785e-16 7.95139e-16 -2.84217e-14 -8.3 1.9 21.0949 8.36388 -1.74213 2.84217e-14 -4.5 0 13.3528 0.0161261 0.0134138 0 -3.4 0 11.324 0.0152265 0.0101816 0.25 -2.2 0.4 6.36111e-15 -9.93923e-16 7.95139e-16 2.84217e-14 -8.3 1 20.198 8.88122 -1.88775 -2.84217e-14 -4.65 0 23.6645 -0.0196925 0.00616791 0 -3.3 0 18.2269 -0.013605 0.0125967 0.5 -2.15 -0.8 6.36111e-15 -1.98785e-16 7.95139e-16 0 -7.75 -0.2 16.4249 5.26358 -1.07641 0 -3.8 0 33.8003 0.0116407 0.00312358 -2.84217e-14 -3.4 0 24.3631 0.0016863 0.0124905 0.75 -1.75 -1.85 6.36111e-15 -1.98785e-16 7.95139e-16 2.84217e-14 -7.15 -1 13.1534 3.44597 -0.689735 0 -3 0 25.754 0.00253657 0.0044126 0 -2.35 -1.42109e-14 19.5221 0.00337175 -0.00850392 8 0 0 18.3738 -17.4875 24.1336 0 -45 -1 0.018615 15.5477 -0.224808 0 -41 -2 -10.8 -0.153712 -17.0435 0 -7.5 12.5 -3.10601e-18 1.81851e-09 6.36111e-15 0 1.11022e-16 4 3.54194 1.20792 0.00371627 -8 0 0 -2.50888 -23.1446 -0.62456 0 -45 -1 -0.0870518 12.4493 1.23239 0 -41 -2 4.56946 3.11531 6.45474 0 -7.5 12.5 -6.06643e-21 -1.81993e-20 3.18055e-15 0 0 4 -5.99985 -3.08543 0.000449791 
-58.8382 91.745 193.111 -5.69839 4.65988 35.8801 0 8 -2.84217e-14 -1.37992 4.94995 -109.797 0 8 0 -6.25102 -0.19719 96.9358 0 8 1.42109e-14 -0.661977 1.67134 26.6668 0 8 -1.42109e-14 -0.434272 1.68931 7.46355 -2.84217e-14 17 1.42109e-14 0.383654 5.70631 -0.348678 0 10.8 0 0.963942 13.3364 -0.884861 5 17 1.42109e-14 -4.87237 -1.36738 4.35316 6.45 0 0 2.9742 7.44482 -1.06559 6.45 0 0 -15.2429 -68.0339 -33.0685 0 -32.4 -2 3.00444 -45.5282 12.9764 0 -25.65 2 42.6692 -9.99604 -17.1057 -0.5 -1.5 2.65 -3.64237 -18.8657 -4.03446 -2.84217e-14 -3.8 3.7 0.00342066 30.5722 -0.0199715 0 -3 2.7 0.0052723 26.6817 0.0111197 0 -1.9 1.6 -7.95139e-16 -5.96354e-16 -3.18055e-15 0 -8.3 1.9 -37.0038 5.88041 2.40354 0 -4.5 0 -18.5607 -0.0280118 0.0468435 1.42109e-14 -3.4 0 -14.9387 -0.020121 0.0269956 -0.25 -2.2 0.4 -7.95139e-16 -7.95139e-16 -3.18055e-15 0 -8.3 1 -39.7179 3.17849 2.1821 1.42109e-14 -4.65 2.84217e-14 -13.0928 0.0417796 0.0546327 1.42109e-14 -3.3 -2.84217e-14 -11.1338 0.0697834 0.0117719 -0.5 -2.15 -0.8 -7.95139e-16 -5.96354e-16 -3.18055e-15 0 -7.75 -0.2 -29.5974 4.34924 2.15968 0 -3.8 -2.84217e-14 -33.565 -0.0173374 0.0743991 7.10543e-15 -3.4 0 -24.2229 -0.00615535 0.00417163 -0.75 -1.75 -1.85 -7.95139e-16 -5.96354e-16 -3.18055e-15 0 -7.15 -1 -64.036 -0.388278 4.67282 7.10543e-15 -3 -2.84217e-14 -6.36111e-15 -3.18055e-15 7.95139e-16 0 -2.35 0 -9.54166e-15 0 1.59028e-15 -5 17 1.42109e-14 -2.24945 -2.06932 -4.6973 -6.45 0 0 4.22347 8.85726 -1.86358 -6.45 0 1.42109e-14 12.1069 -74.2365 37.3055 0 -32.4 -2 11.8654 -44.1934 -7.67203 0 -25.65 2 -28.2973 2.67596 6.88362 0.5 -1.5 2.65 6.29996 -21.0154 3.34027 0 -3.8 3.7 0.272485 36.67 -0.0686847 0 -3 2.7 0.0451193 18.5674 -0.0625928 2.84217e-14 -1.9 1.6 3.18055e-15 -3.97569e-16 -9.93923e-17 0 -8.3 1.9 21.1058 8.39356 -1.74933 0 -4.5 0 13.3152 0.0161261 0.0134138 0 -3.4 2.84217e-14 11.2966 0.0152265 0.0101816 0.25 -2.2 0.4 3.18055e-15 -1.19271e-15 -9.93923e-17 2.84217e-14 -8.3 1 20.2168 8.85588 -1.88502 0 -4.65 2.84217e-14 23.4011 -0.0205885 0.00616791 0 -3.3 0 18.0617 -0.0143665 0.0125967 0.5 -2.15 -0.8 3.18055e-15 -3.97569e-16 -9.93923e-17 0 -7.75 -0.2 16.3462 5.26574 -1.07002 -2.84217e-14 -3.8 1.42109e-14 33.8916 0.0103867 0.00312358 0 -3.4 -1.42109e-14 24.4176 0.0008846 0.0124905 0.75 -1.75 -1.85 3.18055e-15 -3.97569e-16 -9.93923e-17 0 -7.15 -1 13.0464 3.39236 -0.675728 0 -3 -1.42109e-14 25.7584 0.00675736 0.0044126 0 -2.35 0 19.5247 0.0057857 -0.00850392 8 1.42109e-14 -2.84217e-14 17.8397 -16.4716 23.8453 0 -45 -1 0.0158197 14.6828 -0.218291 0 -41 -2 -10.8137 0.0108194 -16.8623 0 -7.5 12.5 -9.31803e-18 1.81851e-09 -0 2.84217e-14 -1.11022e-16 4 3.52844 1.14604 0.00380981 -8 0 -2.84217e-14 -2.7657 -22.0563 -0.617258 2.84217e-14 -45 -1 -0.0721553 11.4917 1.12908 0 -41 -2 4.62586 3.38342 6.59316 2.84217e-14 -7.5 12.5 -1.21329e-20 6.06643e-21 -3.18055e-15 -2.84217e-14 0 4 -5.95377 -3.10188 0.000449798 
